<svg  xmlns="http://www.w3.org/2000/svg" width="25" height="25" viewBox="0 0 25 25"><g><g><g><path d="M3.409-.001a3.409 3.409 0 1 1 .001 6.817A3.409 3.409 0 0 1 3.409 0z"/></g><g><path d="M12.5-.001a3.409 3.409 0 1 1 0 6.817A3.409 3.409 0 0 1 12.5 0z"/></g><g><path d="M21.59-.001a3.409 3.409 0 1 1 .002 6.817A3.409 3.409 0 0 1 21.59 0z"/></g><g><path d="M21.59 9.09a3.41 3.41 0 1 1 0 6.818 3.41 3.41 0 0 1 0-6.819z"/></g><g><path d="M12.5 9.09a3.41 3.41 0 1 1 0 6.818 3.41 3.41 0 0 1 0-6.819z"/></g><g><path d="M3.409 9.09a3.41 3.41 0 1 1 0 6.818 3.41 3.41 0 0 1 0-6.819z"/></g><g><path d="M3.409 18.18a3.41 3.41 0 1 1 0 6.819 3.41 3.41 0 0 1 0-6.818z"/></g><g><path d="M12.5 18.18a3.41 3.41 0 1 1 0 6.819 3.41 3.41 0 0 1 0-6.818z"/></g><g><path d="M21.59 18.18a3.41 3.41 0 1 1 0 6.819 3.41 3.41 0 0 1 0-6.818z"/></g></g></g></svg>